<svg width="63" height="98" viewBox="0 0 63 98" fill="none" xmlns="http://www.w3.org/2000/svg">
<path d="M24.2949 83.5115C22.6958 83.0445 21.0967 82.5776 19.4977 82.1106C20.0602 79.629 20.7546 77.1685 21.5878 74.7251C22.6354 71.6537 17.7768 70.3354 16.7362 73.3876C15.912 75.8029 15.2297 78.2413 14.6632 80.6988L8.19538 78.8088C5.08074 77.8991 3.75138 82.7527 6.85797 83.6604C9.13834 84.3266 11.4187 84.9928 13.6991 85.659C13.1778 88.9236 12.8608 92.2244 12.7662 95.5715C12.6756 98.811 17.7073 98.8079 17.7979 95.5715C17.8784 92.7014 18.1391 89.8746 18.5628 87.08C20.028 87.5077 21.4922 87.9354 22.9575 88.3641C26.0721 89.2728 27.4025 84.4182 24.2949 83.5115Z" fill="#F39200"/>
<path d="M33.1225 43.8061C32.8679 43.7165 32.6133 43.6259 32.3577 43.5354C32.1363 43.4569 31.927 43.4176 31.7247 43.3985C30.663 43.0896 29.6013 42.7796 28.5396 42.4707C28.757 41.9152 29.0971 41.0487 29.0216 40.7257C29.0609 40.6914 29.1032 40.6683 29.1414 40.6311C29.1867 40.5868 29.233 40.5435 29.2783 40.4992C30.338 39.4788 30.1105 37.9914 29.2783 36.9418L29.1233 36.7466C28.4501 35.8972 26.9476 35.8248 26.0751 36.3531C24.5485 37.2769 24.0805 39.3017 23.6498 41.0467C22.4059 40.6844 21.1621 40.3211 19.9182 39.9588C16.8036 39.0511 15.4732 43.9047 18.5808 44.8104C19.8428 45.1787 21.1057 45.5461 22.3677 45.9144C21.9883 47.4581 21.6351 49.0079 21.3141 50.5657C20.664 53.7266 25.5135 55.0782 26.1656 51.9031C26.4806 50.3695 26.8319 48.8439 27.2042 47.3243C28.7308 47.7691 30.2574 48.2139 31.7841 48.6587C34.9279 49.5745 36.1426 44.8738 33.1225 43.8061Z" fill="#F39200"/>
<path d="M7.2353 52.817C5.25783 52.2877 3.28034 51.7583 1.30287 51.229C1.58364 49.6953 1.83724 48.1546 2.0365 46.5968C2.44508 43.3936 -2.58967 43.4238 -2.99523 46.5968C-3.13813 47.7168 -3.31928 48.8299 -3.52156 49.9379C-5.30681 49.4598 -7.09305 48.9818 -8.87932 48.5038C-12.0111 47.6655 -13.3465 52.5181 -10.2167 53.3554C-8.34794 53.8556 -6.47816 54.3557 -4.60837 54.8559C-4.90926 56.0242 -5.22934 57.1886 -5.58357 58.3439C-6.53658 61.4464 -1.68092 62.7728 -0.731933 59.6813C-0.372667 58.5109 -0.0516348 57.3345 0.245237 56.1551C2.12912 56.6592 4.01296 57.1634 5.89684 57.6676C9.02859 58.5069 10.365 53.6553 7.2353 52.817Z" fill="#F39200"/>
<path d="M56.9608 66.0735C56.7575 65.7545 56.5542 65.4345 56.352 65.1155C55.4624 63.7147 53.8834 63.7056 52.7905 64.3939C52.71 64.3778 52.6295 64.3627 52.549 64.3466C52.9566 62.7677 53.3178 61.1726 53.6167 59.5534C54.2376 58.5773 54.2708 57.427 53.6227 56.1751C52.6838 54.3637 49.375 54.6264 49.0248 56.7759C48.6584 59.0201 48.1895 61.2391 47.6199 63.4289C46.0057 63.1521 44.3915 62.8764 42.7703 62.6389C39.6033 62.176 38.2357 67.0235 41.4329 67.4905C43.0159 67.7219 44.5918 67.9916 46.1677 68.2613C45.6354 69.8171 45.0507 71.3579 44.3955 72.8764C43.1265 75.819 47.4599 78.3842 48.7399 75.4164C49.6285 73.3564 50.4206 71.2804 51.121 69.1801C52.1203 69.3774 53.1226 69.5565 54.1189 69.7688C56.1507 70.2026 58.2046 68.0299 56.9608 66.0735Z" fill="#F39200"/>
<path d="M60.8191 32.0198C59.1838 31.6726 57.5585 31.2862 55.9393 30.8826C56.4908 29.4093 57.0262 27.931 57.5304 26.4386C58.5699 23.3642 53.7123 22.0449 52.6788 25.1012C52.1706 26.6057 51.6292 28.095 51.0727 29.5794C49.5189 29.1336 47.9691 28.6707 46.4284 28.1726C43.3409 27.1722 42.0176 32.0289 45.091 33.0251C46.4586 33.4679 47.8332 33.8836 49.2119 34.2851C48.6061 35.7393 47.9832 37.1884 47.325 38.6234C45.9856 41.5469 50.3209 44.106 51.6694 41.1635C52.5117 39.3259 53.3078 37.4692 54.0776 35.6034C55.4362 35.9476 56.8008 36.2726 58.1714 36.5765C58.1855 36.5806 58.1966 36.5866 58.2117 36.5896C58.6343 36.6842 59.058 36.7778 59.4807 36.8724C62.6346 37.5416 63.9891 32.7253 60.8191 32.0198Z" fill="#F39200"/>
<path d="M16.5761 20.5484C14.4104 20.2818 12.2559 19.9638 10.1043 19.6196C10.1425 19.4858 10.1807 19.3509 10.219 19.2171C10.4031 18.571 10.5732 16.9055 10.8701 16.1145C11.807 15.3326 12.2075 13.9831 11.5242 12.869C11.495 12.8217 11.4659 12.7734 11.4367 12.7261C10.6497 11.4441 8.56557 10.9409 7.48476 12.2169C6.05072 13.9106 5.63208 16.5211 5.09469 18.7531C3.12124 18.3848 1.15085 17.9974 -0.813539 17.5707C-3.97045 16.8844 -5.31899 21.7339 -2.15101 22.4223C-0.192664 22.8479 1.77173 23.2324 3.74014 23.5967C3.19067 25.5269 2.64225 27.456 2.09279 29.3862C1.20519 32.5059 6.05878 33.8383 6.94436 30.7236C7.53911 28.6345 8.13283 26.5463 8.72758 24.4581C11.335 24.8757 13.9505 25.2562 16.5761 25.5792C19.7823 25.9747 19.7531 20.9389 16.5761 20.5484Z" fill="#F39200"/>
<path d="M44.8343 8.0688C42.7351 7.56965 40.6368 7.07049 38.5376 6.57135C39.0035 5.38889 39.4685 4.20644 39.9344 3.02399C41.1209 0.00998019 36.2572 -1.29726 35.0828 1.68656C34.5947 2.92537 34.1077 4.16418 33.6196 5.40199L27.978 4.06052C24.8302 3.3118 23.4867 8.16238 26.6406 8.91211C28.3464 9.31767 30.0521 9.72324 31.7578 10.1288C31.0635 11.8939 30.3681 13.658 29.6737 15.4222C28.4872 18.4362 33.3509 19.7434 34.5253 16.7596C35.2418 14.9391 35.9594 13.1186 36.6759 11.2982C38.9492 11.8386 41.2226 12.379 43.4969 12.9204C46.6448 13.6701 47.9882 8.81953 44.8343 8.0688Z" fill="#F39200"/>
</svg>
